<mxfile host="app.diagrams.net" modified="2024-02-06T15:08:32.568Z" agent="Mozilla/5.0 (X11; Ubuntu; Linux x86_64; rv:109.0) Gecko/20100101 Firefox/116.0" etag="VOWdXbdSgymA1YSpWmov" version="23.1.1" type="device">
  <diagram name="Page-1" id="dqFHzOwQlN4HEakyvcr4">
    <mxGraphModel dx="2004" dy="1155" grid="1" gridSize="10" guides="1" tooltips="1" connect="1" arrows="1" fold="1" page="1" pageScale="1" pageWidth="850" pageHeight="1100" math="0" shadow="0">
      <root>
        <mxCell id="0" />
        <mxCell id="1" parent="0" />
        <mxCell id="XV-12P_lJlPnXBhHB6Hm-90" style="edgeStyle=orthogonalEdgeStyle;rounded=0;orthogonalLoop=1;jettySize=auto;html=1;entryX=1;entryY=0.5;entryDx=0;entryDy=0;" edge="1" parent="1" source="XV-12P_lJlPnXBhHB6Hm-88" target="XV-12P_lJlPnXBhHB6Hm-61">
          <mxGeometry relative="1" as="geometry">
            <Array as="points">
              <mxPoint x="955" y="95" />
            </Array>
          </mxGeometry>
        </mxCell>
        <mxCell id="XV-12P_lJlPnXBhHB6Hm-88" value="" style="rounded=1;whiteSpace=wrap;html=1;dashed=1;fillColor=none;" vertex="1" parent="1">
          <mxGeometry x="860" y="130" width="190" height="530" as="geometry" />
        </mxCell>
        <mxCell id="XV-12P_lJlPnXBhHB6Hm-77" style="edgeStyle=orthogonalEdgeStyle;rounded=0;orthogonalLoop=1;jettySize=auto;html=1;entryX=0;entryY=0.5;entryDx=0;entryDy=0;" edge="1" parent="1" source="XV-12P_lJlPnXBhHB6Hm-70" target="XV-12P_lJlPnXBhHB6Hm-45">
          <mxGeometry relative="1" as="geometry" />
        </mxCell>
        <mxCell id="XV-12P_lJlPnXBhHB6Hm-70" value="" style="rounded=1;whiteSpace=wrap;html=1;" vertex="1" parent="1">
          <mxGeometry x="900" y="480" width="120" height="160" as="geometry" />
        </mxCell>
        <mxCell id="XV-12P_lJlPnXBhHB6Hm-76" style="edgeStyle=orthogonalEdgeStyle;rounded=0;orthogonalLoop=1;jettySize=auto;html=1;entryX=0;entryY=0.5;entryDx=0;entryDy=0;" edge="1" parent="1" source="XV-12P_lJlPnXBhHB6Hm-69" target="XV-12P_lJlPnXBhHB6Hm-44">
          <mxGeometry relative="1" as="geometry" />
        </mxCell>
        <mxCell id="XV-12P_lJlPnXBhHB6Hm-69" value="" style="rounded=1;whiteSpace=wrap;html=1;" vertex="1" parent="1">
          <mxGeometry x="890" y="315" width="130" height="160" as="geometry" />
        </mxCell>
        <mxCell id="XV-12P_lJlPnXBhHB6Hm-74" style="edgeStyle=orthogonalEdgeStyle;rounded=0;orthogonalLoop=1;jettySize=auto;html=1;" edge="1" parent="1" source="XV-12P_lJlPnXBhHB6Hm-68" target="XV-12P_lJlPnXBhHB6Hm-43">
          <mxGeometry relative="1" as="geometry" />
        </mxCell>
        <mxCell id="XV-12P_lJlPnXBhHB6Hm-68" value="" style="rounded=1;whiteSpace=wrap;html=1;" vertex="1" parent="1">
          <mxGeometry x="890" y="150" width="130" height="160" as="geometry" />
        </mxCell>
        <mxCell id="XV-12P_lJlPnXBhHB6Hm-61" value="" style="rounded=1;whiteSpace=wrap;html=1;" vertex="1" parent="1">
          <mxGeometry x="530" y="40" width="197.5" height="110" as="geometry" />
        </mxCell>
        <mxCell id="XV-12P_lJlPnXBhHB6Hm-57" value="" style="rounded=1;whiteSpace=wrap;html=1;" vertex="1" parent="1">
          <mxGeometry x="234.36" y="620" width="131.25" height="170" as="geometry" />
        </mxCell>
        <mxCell id="XV-12P_lJlPnXBhHB6Hm-59" style="edgeStyle=orthogonalEdgeStyle;rounded=0;orthogonalLoop=1;jettySize=auto;html=1;entryX=0.5;entryY=0;entryDx=0;entryDy=0;" edge="1" parent="1" source="XV-12P_lJlPnXBhHB6Hm-56" target="XV-12P_lJlPnXBhHB6Hm-57">
          <mxGeometry relative="1" as="geometry" />
        </mxCell>
        <mxCell id="XV-12P_lJlPnXBhHB6Hm-56" value="" style="rounded=1;whiteSpace=wrap;html=1;" vertex="1" parent="1">
          <mxGeometry x="237.17000000000002" y="462.5" width="125.64" height="120" as="geometry" />
        </mxCell>
        <mxCell id="XV-12P_lJlPnXBhHB6Hm-58" style="edgeStyle=orthogonalEdgeStyle;rounded=0;orthogonalLoop=1;jettySize=auto;html=1;" edge="1" parent="1" source="XV-12P_lJlPnXBhHB6Hm-50" target="XV-12P_lJlPnXBhHB6Hm-56">
          <mxGeometry relative="1" as="geometry" />
        </mxCell>
        <mxCell id="XV-12P_lJlPnXBhHB6Hm-64" style="rounded=0;orthogonalLoop=1;jettySize=auto;html=1;entryX=0;entryY=0.5;entryDx=0;entryDy=0;" edge="1" parent="1" source="XV-12P_lJlPnXBhHB6Hm-50" target="XV-12P_lJlPnXBhHB6Hm-9">
          <mxGeometry relative="1" as="geometry" />
        </mxCell>
        <mxCell id="XV-12P_lJlPnXBhHB6Hm-66" style="rounded=0;orthogonalLoop=1;jettySize=auto;html=1;entryX=0;entryY=0.5;entryDx=0;entryDy=0;" edge="1" parent="1" source="XV-12P_lJlPnXBhHB6Hm-50" target="XV-12P_lJlPnXBhHB6Hm-22">
          <mxGeometry relative="1" as="geometry" />
        </mxCell>
        <mxCell id="XV-12P_lJlPnXBhHB6Hm-91" style="edgeStyle=orthogonalEdgeStyle;rounded=0;orthogonalLoop=1;jettySize=auto;html=1;entryX=0;entryY=0.5;entryDx=0;entryDy=0;" edge="1" parent="1" source="XV-12P_lJlPnXBhHB6Hm-50" target="XV-12P_lJlPnXBhHB6Hm-61">
          <mxGeometry relative="1" as="geometry">
            <Array as="points">
              <mxPoint x="300" y="95" />
            </Array>
          </mxGeometry>
        </mxCell>
        <mxCell id="XV-12P_lJlPnXBhHB6Hm-50" value="" style="rounded=1;whiteSpace=wrap;html=1;" vertex="1" parent="1">
          <mxGeometry x="234.37" y="255" width="131.25" height="170" as="geometry" />
        </mxCell>
        <mxCell id="XV-12P_lJlPnXBhHB6Hm-52" style="rounded=0;orthogonalLoop=1;jettySize=auto;html=1;entryX=0;entryY=0.5;entryDx=0;entryDy=0;" edge="1" parent="1" source="XV-12P_lJlPnXBhHB6Hm-1" target="XV-12P_lJlPnXBhHB6Hm-50">
          <mxGeometry relative="1" as="geometry" />
        </mxCell>
        <mxCell id="XV-12P_lJlPnXBhHB6Hm-1" value="Service 1" style="rounded=1;whiteSpace=wrap;html=1;" vertex="1" parent="1">
          <mxGeometry x="20" y="250" width="90" height="40" as="geometry" />
        </mxCell>
        <mxCell id="XV-12P_lJlPnXBhHB6Hm-53" style="rounded=0;orthogonalLoop=1;jettySize=auto;html=1;entryX=0;entryY=0.5;entryDx=0;entryDy=0;" edge="1" parent="1" source="XV-12P_lJlPnXBhHB6Hm-2" target="XV-12P_lJlPnXBhHB6Hm-50">
          <mxGeometry relative="1" as="geometry" />
        </mxCell>
        <mxCell id="XV-12P_lJlPnXBhHB6Hm-2" value="Service 2" style="rounded=1;whiteSpace=wrap;html=1;" vertex="1" parent="1">
          <mxGeometry x="20" y="300" width="90" height="40" as="geometry" />
        </mxCell>
        <mxCell id="XV-12P_lJlPnXBhHB6Hm-54" style="rounded=0;orthogonalLoop=1;jettySize=auto;html=1;entryX=0;entryY=0.5;entryDx=0;entryDy=0;" edge="1" parent="1" source="XV-12P_lJlPnXBhHB6Hm-3" target="XV-12P_lJlPnXBhHB6Hm-50">
          <mxGeometry relative="1" as="geometry" />
        </mxCell>
        <mxCell id="XV-12P_lJlPnXBhHB6Hm-3" value="Service N" style="rounded=1;whiteSpace=wrap;html=1;" vertex="1" parent="1">
          <mxGeometry x="20" y="380" width="90" height="40" as="geometry" />
        </mxCell>
        <mxCell id="XV-12P_lJlPnXBhHB6Hm-4" value="." style="text;html=1;strokeColor=none;fillColor=none;align=center;verticalAlign=middle;whiteSpace=wrap;rounded=0;" vertex="1" parent="1">
          <mxGeometry x="35" y="330" width="60" height="30" as="geometry" />
        </mxCell>
        <mxCell id="XV-12P_lJlPnXBhHB6Hm-5" value="." style="text;html=1;strokeColor=none;fillColor=none;align=center;verticalAlign=middle;whiteSpace=wrap;rounded=0;" vertex="1" parent="1">
          <mxGeometry x="35" y="340" width="60" height="30" as="geometry" />
        </mxCell>
        <mxCell id="XV-12P_lJlPnXBhHB6Hm-6" value="." style="text;html=1;strokeColor=none;fillColor=none;align=center;verticalAlign=middle;whiteSpace=wrap;rounded=0;" vertex="1" parent="1">
          <mxGeometry x="35" y="350" width="60" height="30" as="geometry" />
        </mxCell>
        <mxCell id="XV-12P_lJlPnXBhHB6Hm-8" value="DB" style="shape=cylinder3;whiteSpace=wrap;html=1;boundedLbl=1;backgroundOutline=1;size=15;" vertex="1" parent="1">
          <mxGeometry x="251.24" y="645" width="60" height="80" as="geometry" />
        </mxCell>
        <mxCell id="XV-12P_lJlPnXBhHB6Hm-71" style="rounded=0;orthogonalLoop=1;jettySize=auto;html=1;entryX=0;entryY=0.5;entryDx=0;entryDy=0;" edge="1" parent="1" source="XV-12P_lJlPnXBhHB6Hm-9" target="XV-12P_lJlPnXBhHB6Hm-68">
          <mxGeometry relative="1" as="geometry" />
        </mxCell>
        <mxCell id="XV-12P_lJlPnXBhHB6Hm-9" value="Email Channel Queue" style="shape=step;perimeter=stepPerimeter;whiteSpace=wrap;html=1;fixedSize=1;" vertex="1" parent="1">
          <mxGeometry x="530" y="220" width="190" height="55" as="geometry" />
        </mxCell>
        <mxCell id="XV-12P_lJlPnXBhHB6Hm-12" value="Notification Servers" style="rounded=0;whiteSpace=wrap;html=1;" vertex="1" parent="1">
          <mxGeometry x="249.99" y="285" width="80" height="90" as="geometry" />
        </mxCell>
        <mxCell id="XV-12P_lJlPnXBhHB6Hm-13" value="Notification Servers" style="rounded=0;whiteSpace=wrap;html=1;" vertex="1" parent="1">
          <mxGeometry x="259.99" y="295" width="80" height="90" as="geometry" />
        </mxCell>
        <mxCell id="XV-12P_lJlPnXBhHB6Hm-14" value="Notification Servers" style="rounded=0;whiteSpace=wrap;html=1;" vertex="1" parent="1">
          <mxGeometry x="269.99" y="305" width="80" height="90" as="geometry" />
        </mxCell>
        <mxCell id="XV-12P_lJlPnXBhHB6Hm-16" value="DB" style="shape=cylinder3;whiteSpace=wrap;html=1;boundedLbl=1;backgroundOutline=1;size=15;" vertex="1" parent="1">
          <mxGeometry x="271.24" y="665" width="60" height="80" as="geometry" />
        </mxCell>
        <mxCell id="XV-12P_lJlPnXBhHB6Hm-17" value="DB" style="shape=cylinder3;whiteSpace=wrap;html=1;boundedLbl=1;backgroundOutline=1;size=15;" vertex="1" parent="1">
          <mxGeometry x="288.74" y="685" width="60" height="80" as="geometry" />
        </mxCell>
        <mxCell id="XV-12P_lJlPnXBhHB6Hm-19" value="Cache" style="rounded=1;whiteSpace=wrap;html=1;" vertex="1" parent="1">
          <mxGeometry x="263.75" y="480" width="50" height="60" as="geometry" />
        </mxCell>
        <mxCell id="XV-12P_lJlPnXBhHB6Hm-20" value="Cache" style="rounded=1;whiteSpace=wrap;html=1;" vertex="1" parent="1">
          <mxGeometry x="288.75" y="500" width="50" height="60" as="geometry" />
        </mxCell>
        <mxCell id="XV-12P_lJlPnXBhHB6Hm-72" style="rounded=0;orthogonalLoop=1;jettySize=auto;html=1;entryX=0;entryY=0.5;entryDx=0;entryDy=0;" edge="1" parent="1" source="XV-12P_lJlPnXBhHB6Hm-21" target="XV-12P_lJlPnXBhHB6Hm-69">
          <mxGeometry relative="1" as="geometry" />
        </mxCell>
        <mxCell id="XV-12P_lJlPnXBhHB6Hm-21" value="SMS Channel Queue" style="shape=step;perimeter=stepPerimeter;whiteSpace=wrap;html=1;fixedSize=1;" vertex="1" parent="1">
          <mxGeometry x="530" y="357.5" width="190" height="55" as="geometry" />
        </mxCell>
        <mxCell id="XV-12P_lJlPnXBhHB6Hm-73" style="rounded=0;orthogonalLoop=1;jettySize=auto;html=1;entryX=0;entryY=0.5;entryDx=0;entryDy=0;" edge="1" parent="1" source="XV-12P_lJlPnXBhHB6Hm-22" target="XV-12P_lJlPnXBhHB6Hm-70">
          <mxGeometry relative="1" as="geometry" />
        </mxCell>
        <mxCell id="XV-12P_lJlPnXBhHB6Hm-22" value="Slack Channel Queue" style="shape=step;perimeter=stepPerimeter;whiteSpace=wrap;html=1;fixedSize=1;" vertex="1" parent="1">
          <mxGeometry x="530" y="495" width="190" height="55" as="geometry" />
        </mxCell>
        <mxCell id="XV-12P_lJlPnXBhHB6Hm-25" value="Message Backup" style="rounded=1;whiteSpace=wrap;html=1;" vertex="1" parent="1">
          <mxGeometry x="562.5" y="60" width="100" height="60" as="geometry" />
        </mxCell>
        <mxCell id="XV-12P_lJlPnXBhHB6Hm-26" value="Message Backup" style="rounded=1;whiteSpace=wrap;html=1;" vertex="1" parent="1">
          <mxGeometry x="587.5" y="80" width="100" height="60" as="geometry" />
        </mxCell>
        <mxCell id="XV-12P_lJlPnXBhHB6Hm-31" value="SMS Worker" style="rounded=0;whiteSpace=wrap;html=1;" vertex="1" parent="1">
          <mxGeometry x="915" y="340" width="60" height="90" as="geometry" />
        </mxCell>
        <mxCell id="XV-12P_lJlPnXBhHB6Hm-33" value="SMS Worker" style="rounded=0;whiteSpace=wrap;html=1;" vertex="1" parent="1">
          <mxGeometry x="925" y="350" width="60" height="90" as="geometry" />
        </mxCell>
        <mxCell id="XV-12P_lJlPnXBhHB6Hm-34" value="&lt;div&gt;Email Worker&lt;/div&gt;" style="rounded=0;whiteSpace=wrap;html=1;" vertex="1" parent="1">
          <mxGeometry x="910" y="170" width="60" height="90" as="geometry" />
        </mxCell>
        <mxCell id="XV-12P_lJlPnXBhHB6Hm-35" value="&lt;div&gt;Email Worker&lt;/div&gt;" style="rounded=0;whiteSpace=wrap;html=1;" vertex="1" parent="1">
          <mxGeometry x="920" y="180" width="60" height="90" as="geometry" />
        </mxCell>
        <mxCell id="XV-12P_lJlPnXBhHB6Hm-36" value="&lt;div&gt;Email Worker&lt;/div&gt;" style="rounded=0;whiteSpace=wrap;html=1;" vertex="1" parent="1">
          <mxGeometry x="930" y="190" width="60" height="90" as="geometry" />
        </mxCell>
        <mxCell id="XV-12P_lJlPnXBhHB6Hm-37" value="&lt;div&gt;Slack Worker&lt;/div&gt;" style="rounded=0;whiteSpace=wrap;html=1;" vertex="1" parent="1">
          <mxGeometry x="925" y="510" width="60" height="90" as="geometry" />
        </mxCell>
        <mxCell id="XV-12P_lJlPnXBhHB6Hm-40" value="&lt;div&gt;Slack Worker&lt;/div&gt;" style="rounded=0;whiteSpace=wrap;html=1;" vertex="1" parent="1">
          <mxGeometry x="935" y="520" width="60" height="90" as="geometry" />
        </mxCell>
        <mxCell id="XV-12P_lJlPnXBhHB6Hm-41" value="&lt;div&gt;Email Worker&lt;/div&gt;" style="rounded=0;whiteSpace=wrap;html=1;" vertex="1" parent="1">
          <mxGeometry x="940" y="200" width="60" height="90" as="geometry" />
        </mxCell>
        <mxCell id="XV-12P_lJlPnXBhHB6Hm-42" value="SMS Worker" style="rounded=0;whiteSpace=wrap;html=1;" vertex="1" parent="1">
          <mxGeometry x="935" y="360" width="60" height="90" as="geometry" />
        </mxCell>
        <mxCell id="XV-12P_lJlPnXBhHB6Hm-78" style="edgeStyle=orthogonalEdgeStyle;rounded=0;orthogonalLoop=1;jettySize=auto;html=1;" edge="1" parent="1" source="XV-12P_lJlPnXBhHB6Hm-43" target="XV-12P_lJlPnXBhHB6Hm-46">
          <mxGeometry relative="1" as="geometry" />
        </mxCell>
        <mxCell id="XV-12P_lJlPnXBhHB6Hm-43" value="Third Party Email Service" style="rounded=1;whiteSpace=wrap;html=1;" vertex="1" parent="1">
          <mxGeometry x="1100" y="180" width="90" height="100" as="geometry" />
        </mxCell>
        <mxCell id="XV-12P_lJlPnXBhHB6Hm-83" style="edgeStyle=orthogonalEdgeStyle;rounded=0;orthogonalLoop=1;jettySize=auto;html=1;" edge="1" parent="1" source="XV-12P_lJlPnXBhHB6Hm-44" target="XV-12P_lJlPnXBhHB6Hm-47">
          <mxGeometry relative="1" as="geometry" />
        </mxCell>
        <mxCell id="XV-12P_lJlPnXBhHB6Hm-44" value="Third Party SMS Service" style="rounded=1;whiteSpace=wrap;html=1;" vertex="1" parent="1">
          <mxGeometry x="1100" y="345" width="90" height="100" as="geometry" />
        </mxCell>
        <mxCell id="XV-12P_lJlPnXBhHB6Hm-82" style="edgeStyle=orthogonalEdgeStyle;rounded=0;orthogonalLoop=1;jettySize=auto;html=1;" edge="1" parent="1" source="XV-12P_lJlPnXBhHB6Hm-45" target="XV-12P_lJlPnXBhHB6Hm-49">
          <mxGeometry relative="1" as="geometry" />
        </mxCell>
        <mxCell id="XV-12P_lJlPnXBhHB6Hm-45" value="Third Party Slack Service" style="rounded=1;whiteSpace=wrap;html=1;" vertex="1" parent="1">
          <mxGeometry x="1100" y="510" width="90" height="100" as="geometry" />
        </mxCell>
        <mxCell id="XV-12P_lJlPnXBhHB6Hm-46" value="User" style="shape=umlActor;verticalLabelPosition=bottom;verticalAlign=top;html=1;outlineConnect=0;" vertex="1" parent="1">
          <mxGeometry x="1320" y="200" width="30" height="60" as="geometry" />
        </mxCell>
        <mxCell id="XV-12P_lJlPnXBhHB6Hm-47" value="User" style="shape=umlActor;verticalLabelPosition=bottom;verticalAlign=top;html=1;outlineConnect=0;" vertex="1" parent="1">
          <mxGeometry x="1320" y="365" width="30" height="60" as="geometry" />
        </mxCell>
        <mxCell id="XV-12P_lJlPnXBhHB6Hm-49" value="User" style="shape=umlActor;verticalLabelPosition=bottom;verticalAlign=top;html=1;outlineConnect=0;" vertex="1" parent="1">
          <mxGeometry x="1320" y="530" width="30" height="60" as="geometry" />
        </mxCell>
        <mxCell id="XV-12P_lJlPnXBhHB6Hm-65" style="rounded=0;orthogonalLoop=1;jettySize=auto;html=1;entryX=0;entryY=0.5;entryDx=0;entryDy=0;" edge="1" parent="1" source="XV-12P_lJlPnXBhHB6Hm-50" target="XV-12P_lJlPnXBhHB6Hm-21">
          <mxGeometry relative="1" as="geometry">
            <mxPoint x="544" y="386" as="targetPoint" />
          </mxGeometry>
        </mxCell>
        <mxCell id="XV-12P_lJlPnXBhHB6Hm-86" value="Templates" style="shape=cylinder3;whiteSpace=wrap;html=1;boundedLbl=1;backgroundOutline=1;size=15;" vertex="1" parent="1">
          <mxGeometry x="1090" y="10" width="60" height="80" as="geometry" />
        </mxCell>
        <mxCell id="XV-12P_lJlPnXBhHB6Hm-93" style="rounded=0;orthogonalLoop=1;jettySize=auto;html=1;entryX=0;entryY=0.5;entryDx=0;entryDy=0;entryPerimeter=0;exitX=0.5;exitY=0;exitDx=0;exitDy=0;" edge="1" parent="1" source="XV-12P_lJlPnXBhHB6Hm-88" target="XV-12P_lJlPnXBhHB6Hm-86">
          <mxGeometry relative="1" as="geometry" />
        </mxCell>
      </root>
    </mxGraphModel>
  </diagram>
</mxfile>
